<svg xmlns="http://www.w3.org/2000/svg" width="50" height="50" viewBox="0 0 50 50" fill="none">
    <g clip-path="url(#clip0)">
        <path d="M50 9.5L24.2805 11.4709V37.9766L50 39V9.5Z" fill="url(#paint0_linear)" />
        <path d="M50 38.9283L16.9008 19.6255H0V51.5808H50V38.9283Z" fill="url(#paint1_linear)" />
        <path d="M0 38.6663L50 9.5059V-2H0V38.6663Z" fill="url(#paint2_linear)" />
        <path
            d="M45 0H5C2.23858 0 0 2.23858 0 5V45C0 47.7614 2.23858 50 5 50H45C47.7614 50 50 47.7614 50 45V5C50 2.23858 47.7614 0 45 0Z"
            fill="transparent" />
        <path d="M7 9L25 41L43 9.15619V9.00011H36.0024L25.1033 28.2793L14.2559 9.00011L7 9Z"
            fill="#fff" />
        <path d="M14.2575 9L25.1046 28.2828L36.0024 9H29.4386L25.1476 16.5887L20.8762 9H14.2575Z"
            fill="#ddd" />
    </g>
    <defs>
        <linearGradient id="paint0_linear" x1="33.0876" y1="19.4957" x2="45.641" y2="35.4382"
            gradientUnits="userSpaceOnUse">
            <stop stop-color="#3B009B" />
            <stop offset="1" stop-color="#390086" />
        </linearGradient>
        <linearGradient id="paint1_linear" x1="13.9625" y1="31.0163" x2="27.3086" y2="47.9654"
            gradientUnits="userSpaceOnUse">
            <stop stop-color="#340084" />
            <stop offset="1" stop-color="#290064" />
        </linearGradient>
        <linearGradient id="paint2_linear" x1="14.5208" y1="4.81514" x2="28.1801" y2="22.1621"
            gradientUnits="userSpaceOnUse">
            <stop stop-color="#A47EDE" />
            <stop offset="1" stop-color="#9866D3" />
        </linearGradient>
        <clipPath id="clip0">
            <rect width="50" height="50" rx="5" fill="white" />
        </clipPath>
    </defs>
</svg>